control3min_grf.mot
version=1
nRows=17
nColumns 19
inDegrees=yes
endheader
time	1_ground_force_vx	1_ground_force_vy	1_ground_force_vz	1_ground_force_px	1_ground_force_py	1_ground_force_pz	1_ground_torque_x	1_ground_torque_y	1_ground_torque_z	2_ground_force_vx	2_ground_force_vy	2_ground_force_vz	2_ground_force_px	2_ground_force_py	2_ground_force_pz	2_ground_torque_x	2_ground_torque_y	2_ground_torque_z
            2.502500	          -26.637759	         1301.798578	         -102.987784	           -0.167496	            0.006151	           -0.385705	           -0.044826	            2.190666	           -0.173308	          -50.736427	         1271.711585	          117.374427	           -0.170458	            0.006001	           -0.734864	            0.133958	           -3.357666	           -0.309901
            2.503000	          -26.728579	         1300.175278	         -102.765237	           -0.167443	            0.006150	           -0.385572	           -0.045626	            2.219392	           -0.175420	          -51.102895	         1269.318975	          116.662132	           -0.170454	            0.006001	           -0.734843	            0.130817	           -3.249299	           -0.298641
            2.503500	          -26.727924	         1297.831400	         -102.683582	           -0.167425	            0.006151	           -0.385617	           -0.045767	            2.222326	           -0.175829	          -51.231499	         1266.003736	          116.603428	           -0.170341	            0.006001	           -0.734748	            0.128825	           -3.183455	           -0.293207
            2.504000	          -26.634947	         1295.125965	         -102.374409	           -0.167334	            0.006151	           -0.385631	           -0.043892	            2.134264	           -0.168705	          -51.317426	         1263.795383	          116.126302	           -0.170279	            0.006001	           -0.734798	            0.129113	           -3.179673	           -0.292170
            2.504500	          -26.816540	         1292.239516	         -101.881902	           -0.167266	            0.006151	           -0.385673	           -0.044119	            2.126018	           -0.167618	          -51.074021	         1261.219308	          115.788515	           -0.170235	            0.006001	           -0.734772	            0.132956	           -3.283206	           -0.301421
            2.505000	          -26.953368	         1290.256008	         -101.752492	           -0.167176	            0.006150	           -0.385577	           -0.042147	            2.017577	           -0.159111	          -50.779893	         1257.539685	          115.165182	           -0.170068	            0.006001	           -0.734647	            0.132724	           -3.286858	           -0.301010
            2.505500	          -27.043859	         1286.829990	         -101.537675	           -0.167018	            0.006150	           -0.385582	           -0.042304	            2.012973	           -0.158834	          -50.393857	         1254.410966	          115.013075	           -0.169974	            0.006002	           -0.734641	            0.131181	           -3.265365	           -0.299391
            2.506000	          -26.996772	         1283.764394	         -101.275801	           -0.167016	            0.006150	           -0.385577	           -0.043229	            2.055653	           -0.162170	          -50.615083	         1250.729238	          114.389960	           -0.170012	            0.006001	           -0.734487	            0.126508	           -3.126087	           -0.285908
            2.506500	          -26.950080	         1281.600307	         -101.101767	           -0.166995	            0.006150	           -0.385570	           -0.041815	            1.988509	           -0.156868	          -50.276605	         1247.785008	          114.144676	           -0.169841	            0.006002	           -0.734557	            0.122660	           -3.044227	           -0.278479
            2.507000	          -26.535401	         1277.632243	         -100.569525	           -0.166859	            0.006150	           -0.385561	           -0.042881	            2.064636	           -0.162519	          -50.316324	         1245.760736	          113.715107	           -0.169805	            0.006003	           -0.734730	            0.120179	           -2.975460	           -0.271605
            2.507500	          -26.396973	         1274.567255	         -100.445435	           -0.166802	            0.006151	           -0.385707	           -0.041203	            1.989489	           -0.156787	          -50.534788	         1241.341609	          113.324012	           -0.169792	            0.006002	           -0.734557	            0.123066	           -3.023017	           -0.275976
            2.508000	          -26.395746	         1270.960837	         -100.231619	           -0.166734	            0.006151	           -0.385714	           -0.040522	            1.951126	           -0.153871	          -50.431247	         1238.580780	          113.032548	           -0.169655	            0.006003	           -0.734655	            0.121837	           -2.992290	           -0.273076
            2.508500	          -26.622887	         1267.713393	          -99.648825	           -0.166577	            0.006151	           -0.385672	           -0.039111	            1.862349	           -0.146390	          -49.997132	         1235.084663	          112.644459	           -0.169661	            0.006003	           -0.734573	            0.121348	           -2.997682	           -0.273400
            2.509000	          -26.713348	         1265.368515	          -99.337666	           -0.166593	            0.006150	           -0.385561	           -0.038636	            1.830111	           -0.143673	          -49.607896	         1231.036305	          112.207500	           -0.169551	            0.006003	           -0.734493	            0.118172	           -2.932486	           -0.267293
            2.509500	          -26.619817	         1262.121771	          -98.847387	           -0.166448	            0.006150	           -0.385478	           -0.038510	            1.825883	           -0.143000	          -49.177085	         1228.460907	          111.869617	           -0.169533	            0.006003	           -0.734502	            0.114154	           -2.851605	           -0.259681
            2.510000	          -26.343499	         1258.335231	          -98.635027	           -0.166375	            0.006150	           -0.385503	           -0.037188	            1.776352	           -0.139240	          -49.210123	         1224.594772	          111.527350	           -0.169419	            0.006003	           -0.734529	            0.110613	           -2.752614	           -0.250688
            2.510500	          -26.296236	         1254.908847	          -98.328831	           -0.166355	            0.006150	           -0.385519	           -0.037167	            1.773681	           -0.138977	          -48.869131	         1220.915150	          110.950932	           -0.169403	            0.006003	           -0.734508	            0.108253	           -2.704522	           -0.245774
